<svg xmlns="http://www.w3.org/2000/svg" width="79.263" height="79.263" viewBox="0 0 79.263 79.263"><defs><style>.a{fill:#772ce8;stroke-linejoin:round;}.b,.c,.d,.e,.g{fill:#fff;}.b{font-size:32px;}.b,.c,.d{font-family:Poppins-Bold, Poppins;font-weight:700;}.b,.e{letter-spacing:-0.05em;}.c{font-size:17px;}.d{font-size:14px;}.e{font-size:7px;font-family:Poppins-Medium, Poppins;font-weight:500;}.f,.g{stroke:none;}</style></defs><g transform="translate(-333.108 -459.07)"><g transform="translate(-861 -430)"><g transform="translate(-1)"><g class="a" transform="matrix(0.999, 0.035, -0.035, 0.999, 579.617, 698.997)"><path class="f" d="M 662.739013671875 244.5189971923828 C 659.3212280273438 244.5189971923828 655.9314575195312 244.0608062744141 652.6638793945312 243.1571655273438 C 649.6051025390625 242.3112640380859 646.6565551757812 241.0765991210938 643.8951416015625 239.48583984375 C 643.4501342773438 239.7810516357422 642.466552734375 240.3847808837891 641.038330078125 240.9903259277344 C 639.2407836914062 241.7524719238281 636.3648681640625 242.6609802246094 632.8718872070312 242.6609802246094 C 630.6080932617188 242.6609802246094 628.3344116210938 242.2828063964844 626.1138305664062 241.5369873046875 L 624.834716796875 241.1073608398438 L 626.0848999023438 240.5997314453125 C 626.1693115234375 240.5653991699219 634.4427490234375 237.1398468017578 634.5883178710938 231.9523315429688 C 628.3533935546875 225.0065155029297 624.9219970703125 216.0469665527344 624.9219970703125 206.7010040283203 C 624.9219970703125 201.5958557128906 625.9219360351562 196.6432037353516 627.8939819335938 191.9806060791016 C 629.7987060546875 187.477294921875 632.5253295898438 183.4330444335938 635.9982299804688 179.960205078125 C 639.4710693359375 176.4873352050781 643.5153198242188 173.7606964111328 648.0186157226562 171.8560028076172 C 652.6812133789062 169.8839263916016 657.6338500976562 168.8840026855469 662.739013671875 168.8840026855469 C 667.8441772460938 168.8840026855469 672.796875 169.8839263916016 677.4595336914062 171.8559875488281 C 681.9629516601562 173.7606964111328 686.00732421875 176.4873352050781 689.4802856445312 179.9601898193359 C 692.9533081054688 183.4330596923828 695.6800537109375 187.4773101806641 697.5848388671875 191.9805908203125 C 699.5570068359375 196.6432189941406 700.5570068359375 201.5958709716797 700.5570068359375 206.7010040283203 C 700.5570068359375 211.8061370849609 699.5570068359375 216.7588500976562 697.5848388671875 221.4215545654297 C 695.6800537109375 225.9249572753906 692.9533081054688 229.9693145751953 689.4802856445312 233.4423065185547 C 686.00732421875 236.9152984619141 681.9629516601562 239.6420593261719 677.4595336914062 241.5468444824219 C 672.796875 243.5190277099609 667.8441162109375 244.5189971923828 662.739013671875 244.5189971923828 Z"/><path class="g" d="M 662.739013671875 169.3840026855469 C 642.1290283203125 169.3840026855469 625.4219970703125 186.0910034179688 625.4219970703125 206.7010040283203 C 625.4219970703125 216.3480072021484 629.0830078125 225.1390075683594 635.0900268554688 231.7619934082031 C 635.1439819335938 237.4609985351562 626.2730102539062 241.0630035400391 626.2730102539062 241.0630035400391 C 628.6364135742188 241.8568115234375 630.857177734375 242.1609802246094 632.8718872070312 242.1609802246094 C 639.47119140625 242.1609802246094 643.864990234375 238.8990020751953 643.864990234375 238.8990020751953 L 643.8670043945312 238.8910064697266 C 649.405029296875 242.1450042724609 655.8519897460938 244.0189971923828 662.739013671875 244.0189971923828 C 683.3489990234375 244.0189971923828 700.0570068359375 227.3110046386719 700.0570068359375 206.7010040283203 C 700.0570068359375 186.0910034179688 683.3489990234375 169.3840026855469 662.739013671875 169.3840026855469 M 662.739013671875 168.3840026855469 C 667.9114379882812 168.3840026855469 672.9296875 169.397216796875 677.654296875 171.3954925537109 C 682.2173461914062 173.3254089355469 686.3151245117188 176.0880279541016 689.8338623046875 179.6066284179688 C 693.3526000976562 183.1252593994141 696.1153564453125 187.2229309082031 698.0453491210938 191.7858123779297 C 700.0437622070312 196.5104064941406 701.0570068359375 201.5285949707031 701.0570068359375 206.7010040283203 C 701.0570068359375 211.8734130859375 700.0437622070312 216.8916625976562 698.0453491210938 221.6163330078125 C 696.1153564453125 226.1793212890625 693.3526000976562 230.277099609375 689.8338623046875 233.7958526611328 C 686.3151245117188 237.3146057128906 682.2173461914062 240.0773468017578 677.6543579101562 242.0073394775391 C 672.9296875 244.0057220458984 667.9114379882812 245.0189971923828 662.739013671875 245.0189971923828 C 659.2761840820312 245.0189971923828 655.841552734375 244.5547180175781 652.5305786132812 243.6390686035156 C 649.5291748046875 242.8090362548828 646.6329345703125 241.6098175048828 643.9119262695312 240.0711212158203 C 642.4918212890625 240.9667053222656 638.4434814453125 243.1609802246094 632.8718872070312 243.1609802246094 C 630.5538940429688 243.1609802246094 628.2265625 242.7740631103516 625.9546508789062 242.0109558105469 C 625.55810546875 241.8777770996094 625.286376953125 241.5119018554688 625.2734985351562 241.0938415527344 C 625.2606201171875 240.6757507324219 625.50927734375 240.2938232421875 625.8967895507812 240.136474609375 C 625.9175415039062 240.1280059814453 628.055908203125 239.2485198974609 630.1431274414062 237.7192840576172 C 631.8692626953125 236.4546203613281 633.9063110351562 234.4820251464844 634.0785522460938 232.1320953369141 C 627.847900390625 225.1161193847656 624.4219970703125 216.1018676757812 624.4219970703125 206.7010040283203 C 624.4219970703125 201.5285797119141 625.4351806640625 196.5103912353516 627.4334716796875 191.7858276367188 C 629.3634033203125 187.2229309082031 632.1260375976562 183.1252593994141 635.6446533203125 179.6066436767578 C 639.1632690429688 176.0880279541016 643.2609252929688 173.3254089355469 647.8238525390625 171.3954925537109 C 652.5484008789062 169.397216796875 657.5665893554688 168.3840026855469 662.739013671875 168.3840026855469 Z"/></g><text class="b" transform="translate(1214 938)"><tspan x="0" y="0">30</tspan></text><text class="c" transform="translate(1204 932)"><tspan x="0" y="0">-</tspan></text><text class="d" transform="translate(1253 928)"><tspan x="0" y="0">%</tspan></text><text class="e" transform="translate(1211 945)"><tspan x="0" y="0">De descuento</tspan></text></g></g></g></svg>