<svg xmlns="http://www.w3.org/2000/svg" width="35.461" height="35.449" viewBox="0 0 35.461 35.449"><defs><style>.a{fill:#772ce8;}.b{fill:#fff;}</style></defs><g transform="translate(-369.825 -2536.76)"><path class="a" d="M419.311,1660.334a17.724,17.724,0,1,0,17.743,17.717A17.73,17.73,0,0,0,419.311,1660.334Zm1.26,15.583,2.821,0-.367,2.85-2.452,0,.005,7.3-2.946,0-.006-7.306-2.464,0,0-2.85h2.464v-2.109a3.426,3.426,0,0,1,3.66-3.763c1.043,0,1.944.083,2.2.108v2.55h-1.507c-1.19,0-1.4.565-1.4,1.39Z" transform="translate(-31.769 876.426)"/><path class="b" d="M419.976,1675.49l2.821,0-.367,2.85-2.452,0,.005,7.3-2.946,0-.006-7.306-2.464,0,0-2.85h2.464v-2.109a3.426,3.426,0,0,1,3.66-3.763c1.043,0,1.944.083,2.2.108v2.55h-1.507c-1.19,0-1.4.565-1.4,1.39Z" transform="translate(-31.173 876.853)"/></g></svg>