<svg xmlns="http://www.w3.org/2000/svg" width="35.462" height="35.449" viewBox="0 0 35.462 35.449"><defs><style>.a{fill:#772ce8;}.b{fill:#fff;}</style></defs><path class="a" d="M464.8,1660.334a17.724,17.724,0,1,0,17.744,17.717A17.732,17.732,0,0,0,464.8,1660.334Z" transform="translate(-447.083 -1660.334)"/><g transform="translate(9.233 8.685)"><path class="b" d="M466.854,1685.489h-4.776a.63.63,0,0,0-.107-.02c-.585-.028-1.171-.034-1.753-.086a4.675,4.675,0,0,1-2.054-.657,4.417,4.417,0,0,1-2.118-3.4,17.181,17.181,0,0,1-.112-1.9c-.022-1.946-.052-3.893.037-5.839a6.393,6.393,0,0,1,.265-1.668,4.341,4.341,0,0,1,3.569-3.116,13.679,13.679,0,0,1,2.488-.162c1.575-.012,3.15,0,4.726.017a9.615,9.615,0,0,1,2.125.2,4.554,4.554,0,0,1,1.911.911,4.612,4.612,0,0,1,1.614,3.139c.031.257.05.516.075.774v6.607l-.022.169c-.05.437-.071.881-.157,1.311a4.407,4.407,0,0,1-3.514,3.523,11.829,11.829,0,0,1-2.052.175A1.128,1.128,0,0,0,466.854,1685.489Zm4.423-8.4h-.043c0-.932.007-1.864,0-2.8a7.775,7.775,0,0,0-.147-1.647,2.844,2.844,0,0,0-2.3-2.305,9.046,9.046,0,0,0-1.906-.162q-1.966-.025-3.934-.009c-.807.007-1.615.036-2.421.079a3.355,3.355,0,0,0-1.562.462,2.828,2.828,0,0,0-1.38,2.176,18.189,18.189,0,0,0-.123,2c-.02,1.212-.01,2.424-.007,3.637,0,.544,0,1.09.031,1.633a9.553,9.553,0,0,0,.148,1.361,2.76,2.76,0,0,0,1.5,2.009,3.742,3.742,0,0,0,1.525.378c.77.037,1.541.066,2.311.07,1.266.007,2.532,0,3.8-.016a10.111,10.111,0,0,0,1.97-.15,2.835,2.835,0,0,0,2.119-1.61,4.139,4.139,0,0,0,.356-1.669C471.237,1679.382,471.254,1678.235,471.277,1677.089Z" transform="translate(-455.911 -1668.638)"/><path class="b" d="M468.5,1676.9a4.331,4.331,0,1,1-4.329-4.343A4.34,4.34,0,0,1,468.5,1676.9Zm-4.327-2.828a2.809,2.809,0,1,0,2.8,2.84A2.8,2.8,0,0,0,464.171,1674.074Z" transform="translate(-455.73 -1668.458)"/><path class="b" d="M468.337,1671.425a1.01,1.01,0,1,1-1.02,1A1,1,0,0,1,468.337,1671.425Z" transform="translate(-455.387 -1668.51)"/></g></svg>