<svg xmlns="http://www.w3.org/2000/svg" width="131.755" height="6.917" viewBox="0 0 131.755 6.917"><defs><style>.a{fill:#3a3a3a;}</style></defs><g transform="translate(0 0)"><path class="a" d="M1060.709,1776.554c-1.335,0-1.734.508-1.834,1.416h7.117v1.276h-7.117c.1.907.5,1.406,1.834,1.406h5.4v1.365h-5.4c-2.441,0-3.289-1.166-3.289-3.408s.848-3.41,3.289-3.41h5.4v1.356Z" transform="translate(-1057.42 -1775.099)"/><path class="a" d="M1072.234,1782.016l-2.063-2.152a5.806,5.806,0,0,1-.568-.618,4.876,4.876,0,0,1-.558.618l-2.063,2.152h-1.953l3.5-3.459-3.379-3.359h2l1.894,2.034a7.371,7.371,0,0,1,.558.638,6.081,6.081,0,0,1,.568-.638l1.894-2.034h1.983l-3.369,3.359,3.51,3.459Z" transform="translate(-1055.64 -1775.099)"/><path class="a" d="M1079.079,1775.2c1.884,0,2.721,1.058,2.721,2.283s-.837,2.3-2.721,2.3h-4.484v2.232h-1.425V1775.2Zm.07,3.329a1.044,1.044,0,1,0,0-2.073h-4.555v2.073Z" transform="translate(-1053.734 -1775.099)"/><path class="a" d="M1084.139,1776.554c-1.336,0-1.735.508-1.835,1.416h7.117v1.276H1082.3c.1.907.5,1.406,1.835,1.406h5.4v1.365h-5.4c-2.442,0-3.29-1.166-3.29-3.408s.848-3.41,3.29-3.41h5.4v1.356Z" transform="translate(-1051.937 -1775.099)"/><path class="a" d="M1089.1,1775.2h5.921c1.675,0,2.711.758,2.711,2.124a1.748,1.748,0,0,1-1.4,1.8,1.56,1.56,0,0,1,1.245,1.545v1.345h-1.475v-1.375c0-.379-.208-.868-1.116-.868h-4.466v2.242H1089.1Zm6.031,3.31a1.033,1.033,0,1,0,0-2.053h-4.605v2.053Z" transform="translate(-1050.005 -1775.099)"/><path class="a" d="M1098.669,1775.2v6.818h-1.425V1775.2Z" transform="translate(-1048.1 -1775.099)"/><path class="a" d="M1101.167,1776.7v5.313h-1.395V1775.2h1.385a1.127,1.127,0,0,1,.968.529l2.83,3.478,2.832-3.478a1.123,1.123,0,0,1,.966-.529h1.386v6.818h-1.4V1776.7l-3.239,3.907h-1.1Z" transform="translate(-1047.509 -1775.099)"/><path class="a" d="M1112.583,1776.554c-1.337,0-1.735.508-1.835,1.416h7.118v1.276h-7.118c.1.907.5,1.406,1.835,1.406h5.4v1.365h-5.4c-2.442,0-3.29-1.166-3.29-3.408s.848-3.41,3.29-3.41h5.4v1.356Z" transform="translate(-1045.28 -1775.099)"/><path class="a" d="M1118.972,1782.016h-1.425V1775.2h1.007c1.834,0,2.332.589,4.057,2.97,1.624,2.244,1.744,2.4,2.482,2.4h.01V1775.2h1.425v6.818h-1.007c-1.684,0-2.193-.538-4.056-2.98-1.745-2.282-1.794-2.392-2.483-2.392h-.01Z" transform="translate(-1043.349 -1775.099)"/><path class="a" d="M1129.053,1782.016v-5.532h-3.389V1775.2h8.2v1.286h-3.389v5.532Z" transform="translate(-1041.449 -1775.099)"/><path class="a" d="M1141.668,1782.035h-1.534l-.867-1.684h-5.024l-.867,1.684h-1.525l2.791-5.472a2.268,2.268,0,0,1,4.226,0Zm-4.206-5.183a.769.769,0,0,0-1.415,0l-1.156,2.232h3.718Z" transform="translate(-1040.001 -1775.118)"/><path class="a" d="M1141.715,1775.2v4c0,1.117.428,1.425,1.863,1.425h4.546v1.4h-4.546c-2.252,0-3.289-.778-3.289-2.821v-4Z" transform="translate(-1038.026 -1775.099)"/><path class="a" d="M1148.927,1775.2v6.818H1147.5V1775.2Z" transform="translate(-1036.338 -1775.099)"/><path class="a" d="M1152.886,1782.016v-5.532H1149.5V1775.2h8.2v1.286h-3.389v5.532Z" transform="translate(-1035.871 -1775.099)"/><path class="a" d="M1158.4,1775.2l2.094,2.522a6.534,6.534,0,0,1,.677.867,5.675,5.675,0,0,1,.687-.867l2.093-2.522h2.073l-3.369,3.678c-.219.24-.768.778-.768,1.186v1.954h-1.425v-1.954c0-.418-.558-.956-.768-1.186l-3.369-3.678Z" transform="translate(-1034.272 -1775.099)"/></g></svg>