<svg xmlns="http://www.w3.org/2000/svg" width="123" height="89.327" viewBox="0 0 123 89.327"><defs><style>.a{fill:#2fb5e6;}.b{fill:#32d1f7;}.c{fill:#772ce8;font-size:30px;font-family:GalanoGrotesque-Bold;font-weight:700;}.d{font-family:GalanoGrotesque-Medium;font-weight:500;}</style></defs><g transform="translate(9856.099 -3253.262)"><g transform="translate(-9819.969 3253.262)"><g transform="translate(0)"><path class="a" d="M1552.1-393.675c-1.47,4.587-5.269,10.595-2.219,14.789,3.622,4.983,13.641,6.311,19.679,5.435a12.6,12.6,0,0,0,5.515-2.133c4.072-3.239,4.91-7.055,3.641-8.983-1.164-1.77-2.908-2.993-7.753-1.765C1563.592-384.42,1554.133-388.485,1552.1-393.675Z" transform="translate(-1529.412 425.167)"/><path class="b" d="M1481.148-512.308a15.63,15.63,0,0,1,15.316-1.746c3.005-9.318-5.221-13.112-8.4-11.673.517-3.192-1.18-6.817-5.883-7.9a11.147,11.147,0,0,0-9.786,2.6,3.674,3.674,0,0,0-2.068-4.548c-2.532-1.176-5.424.926-5.424.926a29.454,29.454,0,0,0-6.5,41.144,29.459,29.459,0,0,0,30.656,11.335,26.834,26.834,0,0,0,9.107-3.979,15.68,15.68,0,0,1-20.468-4.307A15.64,15.64,0,0,1,1481.148-512.308Z" transform="translate(-1452.767 535.936)"/></g></g><g transform="translate(-9856.099 3312.589)"><text class="c" transform="translate(0 24)"><tspan x="0" y="0">old</tspan><tspan class="d" y="0">wave</tspan></text></g></g></svg>