<svg xmlns="http://www.w3.org/2000/svg" width="164.39" height="39.522" viewBox="0 0 164.39 39.522"><defs><style>.a{fill:#2fb5e6;}.b{fill:#32d1f7;}.c{fill:#772ce8;font-size:30px;font-family:GalanoGrotesque-Bold;font-weight:700;}.d{font-family:GalanoGrotesque-Medium;font-weight:500;}</style></defs><g transform="translate(9856.099 -3260.781)"><g transform="translate(-9856.099 3260.781)"><g transform="translate(0)"><path class="a" d="M1551.172-393.675c-1.065,3.323-3.816,7.674-1.607,10.713,2.624,3.609,9.881,4.571,14.255,3.937a9.131,9.131,0,0,0,3.995-1.545c2.95-2.346,3.557-5.11,2.638-6.507-.843-1.282-2.107-2.168-5.616-1.278C1559.5-386.971,1552.644-389.915,1551.172-393.675Z" transform="translate(-1534.737 416.487)"/><path class="b" d="M1473.325-518.82a11.322,11.322,0,0,1,11.095-1.265c2.177-6.75-3.782-9.5-6.087-8.455.375-2.312-.855-4.938-4.261-5.725a8.074,8.074,0,0,0-7.088,1.883,2.662,2.662,0,0,0-1.5-3.294c-1.834-.852-3.929.671-3.929.671a21.335,21.335,0,0,0-4.709,29.8,21.339,21.339,0,0,0,22.206,8.211,19.438,19.438,0,0,0,6.6-2.882,11.358,11.358,0,0,1-14.826-3.12A11.329,11.329,0,0,1,1473.325-518.82Z" transform="translate(-1452.767 535.936)"/></g></g><g transform="translate(-9814.709 3267.589)"><text class="c" transform="translate(0 24)"><tspan x="0" y="0">old</tspan><tspan class="d" y="0">wave</tspan></text></g></g></svg>